<svg width="20" height="20" viewBox="0 0 20 20" fill="none" xmlns="http://www.w3.org/2000/svg">
<g clip-path="url(#clip0_8_1932)">
<path d="M9.99976 3.95833C11.4748 3.95833 12.7956 4.46667 13.8373 5.45832L16.6914 2.60417C14.9581 0.991667 12.6956 0 9.99976 0C6.09141 0 2.71224 2.24167 1.06641 5.50832L4.39141 8.08748C5.17891 5.71667 7.39141 3.95833 9.99976 3.95833Z" fill="#EA4335"/>
<path d="M19.575 10.2292C19.575 9.57504 19.5125 8.94171 19.4167 8.33337H10V12.0917H15.3917C15.15 13.325 14.45 14.375 13.4 15.0834L16.6208 17.5834C18.5 15.8417 19.575 13.2667 19.575 10.2292Z" fill="#4285F4"/>
<path d="M4.38748 11.9124C4.18748 11.3082 4.07084 10.6665 4.07084 9.99988C4.07084 9.33321 4.18332 8.69155 4.38748 8.08738L1.0625 5.50818C0.383333 6.85818 0 8.38321 0 9.99988C0 11.6165 0.383333 13.1415 1.06667 14.4915L4.38748 11.9124Z" fill="#FBBC05"/>
<path d="M10 20C12.7 20 14.9708 19.1125 16.6208 17.5792L13.4 15.0792C12.5042 15.6833 11.35 16.0375 10 16.0375C7.39167 16.0375 5.17916 14.2792 4.38749 11.9083L1.0625 14.4875C2.7125 17.7583 6.09168 20 10 20Z" fill="#34A853"/>
</g>
<defs>
<clipPath id="clip0_8_1932">
<rect width="20" height="20" fill="white"/>
</clipPath>
</defs>
</svg>
